<?xml version="1.0" encoding="UTF-8"?>
<svg id="Layer_17" data-name="Layer 17" xmlns="http://www.w3.org/2000/svg" viewBox="0 0 1080 1080">
  <defs>
    <style>
      .cls-1 {
        fill: #fff;
      }

      .cls-2 {
        fill: #f16522;
      }
    </style>
  </defs>
  <circle class="cls-2" cx="540" cy="540" r="540"/>
  <path class="cls-1" d="M829.85,527.55l-44.62-20.28v-216.22c0-7.72-6.26-13.98-13.98-13.98h-124.61c-6.14,0-11.56,4.01-13.37,9.88l-93.27,304.2-93.27-304.2c-1.8-5.87-7.22-9.88-13.37-9.88h-124.61c-7.72,0-13.98,6.26-13.98,13.98v216.18l-44.57,20.02c-5,2.25-8.23,7.22-8.25,12.7-.02,5.49,3.17,10.48,8.16,12.76l44.87,20.54v215.7c0,7.72,6.26,13.98,13.98,13.98h124.61c6.23,0,11.71-4.13,13.44-10.12,1.72-5.99-.73-12.4-6.01-15.71l-70.05-43.9v-170.39c0-3.71-1.47-7.26-4.09-9.88l-12.93-12.93,12.71-12.71c2.62-2.62,4.09-6.18,4.09-9.88v-164.37h17.69l138.24,440.1c1.83,5.83,7.23,9.79,13.34,9.79s11.51-3.96,13.34-9.79l138.24-440.1h17.69v164.37c0,3.71,1.47,7.26,4.1,9.89l12.71,12.71-12.93,12.93c-2.62,2.62-4.09,6.18-4.09,9.88v170.39l-70.05,43.9c-5.28,3.31-7.73,9.72-6.01,15.71,1.72,5.99,7.2,10.12,13.44,10.12h124.61c7.72,0,13.98-6.26,13.98-13.98v-215.65l44.82-20.29c5-2.26,8.21-7.24,8.21-12.73,0-5.49-3.2-10.47-8.2-12.74Z"/>
</svg>